<?xml version="1.0" standalone="no"?>
<!DOCTYPE svg PUBLIC "-//W3C//DTD SVG 20010904//EN"
 "http://www.w3.org/TR/2001/REC-SVG-20010904/DTD/svg10.dtd">
<svg version="1.0" xmlns="http://www.w3.org/2000/svg"
 width="70.000000pt" height="70.000000pt" viewBox="0 0 70.000000 70.000000"
 preserveAspectRatio="xMidYMid meet">
<metadata>
Created by potrace 1.11, written by Peter Selinger 2001-2013
</metadata>
<g transform="translate(0.000000,70.000000) scale(0.100000,-0.100000)"
fill="#000000" stroke="none">
<path d="M0 350 l0 -350 350 0 350 0 0 65 c0 58 -2 65 -20 65 -15 0 -20 7 -20
25 0 23 -4 25 -44 25 -44 0 -45 0 -48 38 -2 30 -7 38 -25 40 -17 3 -23 10 -23
28 0 17 -5 24 -20 24 -15 0 -20 -7 -20 -25 0 -18 -5 -25 -20 -25 -13 0 -20 -7
-20 -20 0 -19 -7 -20 -90 -20 l-90 0 0 45 c0 41 2 45 25 45 18 0 25 5 25 20 0
13 7 20 19 20 13 0 21 8 23 23 2 12 7 20 12 19 17 -7 26 24 26 94 0 63 -2 72
-20 77 -11 3 -20 14 -20 25 0 11 -9 22 -20 25 -16 4 -20 14 -20 46 l0 41 -155
0 -155 0 0 -350z"/>
<path d="M520 680 c0 -15 7 -20 25 -20 18 0 25 5 25 20 0 15 -7 20 -25 20 -18
0 -25 -5 -25 -20z"/>
<path d="M660 501 c0 -25 -3 -28 -25 -23 -20 3 -25 0 -25 -17 0 -23 35 -30 43
-8 3 6 6 -14 6 -45 1 -51 3 -58 21 -58 19 0 20 7 20 90 0 83 -1 90 -20 90 -15
0 -20 -7 -20 -29z"/>
</g>
</svg>
